<svg width="16" height="16" viewBox="0 0 16 16" fill="none" xmlns="http://www.w3.org/2000/svg">
<path fill-rule="evenodd" clip-rule="evenodd" d="M8.33634 2.98147C8.14563 2.8081 7.85437 2.8081 7.66366 2.98147L3 7.22116V13H6V10.25C6 9.83577 6.33579 9.49998 6.75 9.49998H9.25C9.66421 9.49998 10 9.83577 10 10.25V13H13V7.22116L8.33634 2.98147ZM6.99099 2.24153C7.56312 1.72141 8.43688 1.72141 9.00901 2.24153L13.7545 6.55562C13.9109 6.69776 14 6.89926 14 7.11057V13.25C14 13.6642 13.6642 14 13.25 14H9.75C9.33579 14 9 13.6642 9 13.25V10.5H7V13.25C7 13.6642 6.66421 14 6.25 14H2.75C2.33579 14 2 13.6642 2 13.25V7.11057C2 6.89926 2.08914 6.69776 2.2455 6.55562L6.99099 2.24153Z" fill="#2C3E50"/>
</svg>
