<svg width="24" height="24" viewBox="0 0 24 24" fill="none" xmlns="http://www.w3.org/2000/svg">
<path fill-rule="evenodd" clip-rule="evenodd" d="M13.5 12C13.5 12.8284 12.8284 13.5 12 13.5C11.1716 13.5 10.5 12.8284 10.5 12C10.5 11.1716 11.1716 10.5 12 10.5C12.8284 10.5 13.5 11.1716 13.5 12ZM12.75 12C12.75 12.4142 12.4142 12.75 12 12.75C11.5858 12.75 11.25 12.4142 11.25 12C11.25 11.5858 11.5858 11.25 12 11.25C12.4142 11.25 12.75 11.5858 12.75 12Z" fill="#2C3E50"/>
<path fill-rule="evenodd" clip-rule="evenodd" d="M12 15C13.6569 15 15 13.6569 15 12C15 10.3431 13.6569 9 12 9C10.3431 9 9 10.3431 9 12C9 13.6569 10.3431 15 12 15ZM12 14.25C13.2426 14.25 14.25 13.2426 14.25 12C14.25 10.7574 13.2426 9.75 12 9.75C10.7574 9.75 9.75 10.7574 9.75 12C9.75 13.2426 10.7574 14.25 12 14.25Z" fill="#2C3E50"/>
<path d="M6.56792 10.5397C6.94141 9.15043 7.84371 7.90456 9.18752 7.12872C9.36688 7.02516 9.42834 6.79582 9.32478 6.61646C9.22123 6.4371 8.99188 6.37564 8.81252 6.4792C7.28973 7.35838 6.26661 8.77167 5.84364 10.3449C5.78987 10.5449 5.90842 10.7507 6.10842 10.8044C6.30843 10.8582 6.51415 10.7397 6.56792 10.5397Z" fill="#2C3E50"/>
<path d="M18.1592 13.6449C18.2126 13.4448 18.0937 13.2393 17.8936 13.1858C17.6935 13.1324 17.488 13.2513 17.4346 13.4514C17.0626 14.8443 16.1593 16.0939 14.8125 16.8715C14.6332 16.9751 14.5717 17.2044 14.6753 17.3838C14.7788 17.5631 15.0082 17.6246 15.1875 17.521C16.7137 16.6399 17.7379 15.2223 18.1592 13.6449Z" fill="#2C3E50"/>
<path fill-rule="evenodd" clip-rule="evenodd" d="M21 12C21 16.9706 16.9706 21 12 21C7.02944 21 3 16.9706 3 12C3 7.02944 7.02944 3 12 3C16.9706 3 21 7.02944 21 12ZM19.5 12C19.5 16.1421 16.1421 19.5 12 19.5C7.85786 19.5 4.5 16.1421 4.5 12C4.5 7.85786 7.85786 4.5 12 4.5C16.1421 4.5 19.5 7.85786 19.5 12Z" fill="#2C3E50"/>
</svg>
