<svg width="24" height="24" viewBox="0 0 24 24" fill="none" xmlns="http://www.w3.org/2000/svg">
<path fill-rule="evenodd" clip-rule="evenodd" d="M12 4.50006C12.241 3.88986 13.051 2.9714 14.2754 3.29056C15.073 3.49846 15.8273 3.81278 16.5219 4.21707C17.6547 4.87642 17.5372 6.14674 17.2496 6.75006C17.853 6.46248 19.1237 6.34537 19.783 7.47819C20.1873 8.17281 20.5016 8.92705 20.7095 9.72464C21.0287 10.9491 20.1105 11.7585 19.5003 11.9995C20.1104 12.2405 21.0287 13.051 20.7095 14.2755C20.5738 14.796 20.3928 15.2982 20.1709 15.7774C19.8376 16.4975 19.1764 16.7916 18.6584 16.8491C18.163 16.904 17.6576 16.7752 17.25 16.4999C17.5842 16.861 17.7882 17.3413 17.8092 17.8391C17.8312 18.3589 17.642 19.0571 16.9816 19.4966C16.1646 20.0405 15.2526 20.4549 14.2754 20.7096C13.051 21.0287 12.2416 20.1105 12.0005 19.5003C11.7595 20.1105 10.949 21.0287 9.72459 20.7096C8.74742 20.4549 7.83548 20.0405 7.01848 19.4966C6.35805 19.0571 6.1688 18.3589 6.19079 17.8391C6.21186 17.3413 6.41584 16.8612 6.75002 16.5001C6.34247 16.7754 5.83699 16.904 5.34159 16.8491C4.82368 16.7916 4.16244 16.4975 3.82909 15.7774C3.60724 15.2982 3.4262 14.796 3.29051 14.2755C2.97134 13.051 3.8896 12.2416 4.49977 12.0006C3.88957 11.7596 2.97135 10.9491 3.29052 9.72464C3.49841 8.92705 3.81274 8.17281 4.21703 7.4782C4.87637 6.34537 6.14669 6.46287 6.75002 6.75045C6.46241 6.14715 6.34533 4.87642 7.47815 4.21707C8.17276 3.81278 8.927 3.49846 9.72459 3.29056C10.9491 2.9714 11.759 3.88986 12 4.50006ZM10.6044 5.05082C10.5228 4.84425 10.3178 4.68605 10.1029 4.74206C9.43927 4.91505 8.8114 5.17665 8.23271 5.51347C8.03435 5.62892 8.00558 5.89754 8.10445 6.10465C8.19777 6.30014 8.25002 6.519 8.25002 6.75006C8.25002 7.57849 7.57844 8.25006 6.75002 8.25006C6.51895 8.25006 6.3001 8.19782 6.10461 8.1045C5.89749 8.00563 5.62887 8.0344 5.51343 8.23275C5.1766 8.81145 4.915 9.43932 4.74202 10.103C4.686 10.3179 4.8442 10.5228 5.05077 10.6044C5.6067 10.824 6.00002 11.3661 6.00002 12.0001C6.00002 12.634 5.6067 13.1762 5.05077 13.3957C4.8442 13.4773 4.686 13.6822 4.74202 13.8971C4.85493 14.3303 5.0056 14.7483 5.1903 15.1473C5.30951 15.4048 5.67554 15.4158 5.91056 15.2568C6.15012 15.0947 6.43901 15.0001 6.75002 15.0001C7.57844 15.0001 8.25002 15.6716 8.25002 16.5001C8.25002 16.8933 8.09866 17.2513 7.85102 17.5188C7.65825 17.727 7.61341 18.0907 7.84962 18.248C8.5306 18.7012 9.28991 19.0461 10.1029 19.2581C10.3178 19.3141 10.5228 19.1559 10.6044 18.9493C10.8239 18.3934 11.366 18.0001 12 18.0001C12.634 18.0001 13.1761 18.3934 13.3957 18.9493C13.4773 19.1559 13.6822 19.3141 13.8971 19.2581C14.7101 19.0461 15.4694 18.7012 16.1504 18.248C16.3866 18.0907 16.3418 17.727 16.149 17.5188C15.9014 17.2513 15.75 16.8933 15.75 16.5001C15.75 15.6716 16.4216 15.0001 17.25 15.0001C17.561 15.0001 17.8499 15.0947 18.0895 15.2568C18.3245 15.4158 18.6905 15.4048 18.8097 15.1473C18.9944 14.7483 19.1451 14.3303 19.258 13.8971C19.314 13.6822 19.1558 13.4773 18.9493 13.3957C18.3933 13.1762 18 12.634 18 12.0001C18 11.3661 18.3933 10.824 18.9493 10.6044C19.1558 10.5228 19.314 10.3179 19.258 10.103C19.085 9.43932 18.8234 8.81145 18.4866 8.23275C18.3712 8.0344 18.1025 8.00563 17.8954 8.1045C17.6999 8.19782 17.4811 8.25006 17.25 8.25006C16.4216 8.25006 15.75 7.57849 15.75 6.75006C15.75 6.519 15.8023 6.30014 15.8956 6.10466C15.9944 5.89754 15.9657 5.62892 15.7673 5.51347C15.1886 5.17665 14.5608 4.91505 13.8971 4.74206C13.6822 4.68605 13.4773 4.84425 13.3957 5.05082C13.1761 5.60675 12.634 6.00006 12 6.00006C11.366 6.00006 10.8239 5.60675 10.6044 5.05082Z" fill="#2C3E50"/>
<path fill-rule="evenodd" clip-rule="evenodd" d="M16.5 12.0001C16.5 14.4853 14.4853 16.5001 12 16.5001C9.51473 16.5001 7.50002 14.4853 7.50002 12.0001C7.50002 9.51478 9.51473 7.50006 12 7.50006C14.4853 7.50006 16.5 9.51478 16.5 12.0001ZM12 15.0001C13.6569 15.0001 15 13.6569 15 12.0001C15 10.3432 13.6569 9.00006 12 9.00006C10.3432 9.00006 9.00002 10.3432 9.00002 12.0001C9.00002 13.6569 10.3432 15.0001 12 15.0001Z" fill="#2C3E50"/>
</svg>
